<svg width="3116" height="2549" viewBox="0 0 3116 2549" fill="none" xmlns="http://www.w3.org/2000/svg">
<path d="M828.222 907.691L822.196 786.75L808.637 770.691H908.571L899.532 786.75L908.571 878.585L923.637 894.142L828.222 907.691Z" fill="url(#paint0_linear_2170_592)"/>
<path d="M815.352 606.159L850.099 464.671L838.951 441.108L962.404 478.518L945.636 493.622L924.765 602.729L937.949 626.278L815.352 606.159Z" fill="url(#paint1_linear_2170_592)"/>
<path d="M1216.91 670.777L1242.53 552.427L1233.62 533.396L1330.11 559.375L1317.21 572.531L1302.07 663.559L1312.57 682.497L1216.91 670.777Z" fill="url(#paint2_linear_2170_592)"/>
<path d="M1269.66 395.392L1316.53 283.738L1311.25 263.396L1401.35 306.612L1386.26 317.183L1354.69 403.896L1361.55 424.438L1269.66 395.392Z" fill="url(#paint3_linear_2170_592)"/>
<path d="M904.637 1088.05L971.386 1185.69L1037.64 1141.45L980.137 1061.69L987.137 1009.69L904.637 1088.05Z" fill="url(#paint4_linear_2170_592)"/>
<ellipse cx="1061.51" cy="1230.35" rx="84.6714" ry="102.159" transform="rotate(-40.8584 1061.51 1230.35)" fill="url(#paint5_linear_2170_592)"/>
<ellipse cx="1299.84" cy="1356.81" rx="80.1363" ry="89.5918" transform="rotate(-69.1817 1299.84 1356.81)" fill="url(#paint6_linear_2170_592)"/>
<ellipse cx="893.816" cy="984.983" rx="92.0193" ry="105.457" transform="rotate(-22.6471 893.816 984.983)" fill="url(#paint7_linear_2170_592)"/>
<path d="M1220.14 1368.69L1252.14 1301.19L1145.14 1249.69L1115.64 1315.19L1167.89 1341.94L1220.14 1368.69Z" fill="url(#paint8_linear_2170_592)"/>
<path d="M1698.85 1741L1642.73 1906.99L1717.51 1911.73L1766.72 1769.99L1698.85 1741Z" fill="#7D8696"/>
<path d="M1620.7 1947.01L1529.96 2073.72L1595.54 2111.04L1679.47 1990L1620.7 1947.01Z" fill="#B4BAC2"/>
<path d="M1450.91 2103L1318.95 2186.94L1381.77 2261.43L1540.45 2151.01L1450.91 2103Z" fill="#818999"/>
<path d="M1151.44 2241.53L973.93 2317.92L1019.66 2399.58L1186.27 2343.38L1151.44 2241.53Z" fill="#818999"/>
<path d="M2611.11 1656.46L2617.47 1777.07L2631.2 1793.05L2530.23 1793.28L2539.33 1777.24L2529.99 1685.67L2514.73 1670.19L2611.11 1656.46Z" fill="url(#paint9_linear_2170_592)"/>
<path d="M2652.53 1979.16L2660.34 2099.76L2677.33 2115.74L2552.36 2116.02L2563.63 2099.98L2552.12 2008.41L2533.25 1992.94L2652.53 1979.16Z" fill="url(#paint10_linear_2170_592)"/>
<path d="M2533.5 1476.76L2465.84 1379.53L2399 1423.81L2457.28 1503.22L2450.32 1555.1L2533.5 1476.76Z" fill="url(#paint11_linear_2170_592)"/>
<ellipse cx="85.079" cy="102.459" rx="85.079" ry="102.459" transform="matrix(-0.759067 0.651013 -0.660724 -0.750629 2506.96 1356.7)" fill="url(#paint12_linear_2170_592)"/>
<ellipse cx="92.7972" cy="105.381" rx="92.7972" ry="105.381" transform="matrix(-0.923803 0.382867 -0.391387 -0.920226 2671.63 1640.98)" fill="url(#paint13_linear_2170_592)"/>
<ellipse cx="112.805" cy="134.938" rx="112.805" ry="134.938" transform="matrix(-0.996979 0.0776747 -0.0868836 -0.996219 2714.58 2013.99)" fill="url(#paint14_linear_2170_592)"/>
<ellipse cx="148.789" cy="174.196" rx="148.789" ry="174.196" transform="matrix(-0.996979 0.0776747 -0.0868836 -0.996219 2785.17 2392.68)" fill="url(#paint15_linear_2170_592)"/>
<path d="M2214.12 1197.57L2181.94 1264.96L2290.16 1316.08L2319.83 1250.69L2266.97 1224.13L2214.12 1197.57Z" fill="url(#paint16_linear_2170_592)"/>
<path d="M1956.06 1203.05L1974.14 1275.51L2090.15 1246.05L2071.4 1176.73L2013.73 1189.89L1956.06 1203.05Z" fill="url(#paint17_linear_2170_592)"/>
<ellipse cx="61.452" cy="75.0913" rx="61.452" ry="75.0913" transform="matrix(0.2026 0.979262 -0.977475 0.211051 1978.14 1174.23)" fill="url(#paint18_linear_2170_592)"/>
<ellipse cx="80.055" cy="90.3748" rx="80.055" ry="90.3748" transform="matrix(-0.357377 0.93396 -0.937012 -0.349296 2254.57 1164.1)" fill="url(#paint19_linear_2170_592)"/>
<path d="M874.667 1776.11L996.104 1799.54L1010.43 1718.38L909.091 1701.41L874.995 1657.83L874.667 1776.11Z" fill="url(#paint20_linear_2170_592)"/>
<ellipse cx="87.8959" cy="106.492" rx="87.8959" ry="106.492" transform="matrix(0.0494322 -0.998778 0.996957 0.0779531 966.938 1842.01)" fill="url(#paint21_linear_2170_592)"/>
<ellipse cx="84.2563" cy="92.1865" rx="84.2563" ry="92.1865" transform="matrix(-0.425989 -0.904728 0.912737 -0.408548 1282.73 1794.22)" fill="url(#paint22_linear_2170_592)"/>
<ellipse cx="68.2599" cy="84.6705" rx="68.2599" ry="84.6705" transform="matrix(-0.800693 -0.599074 0.61433 -0.78905 1521.66 1625.83)" fill="url(#paint23_linear_2170_592)"/>
<path d="M1375.44 1608.43L1447.44 1545.93L1499.44 1596.93L1418.43 1675.93L1375.44 1608.43Z" fill="url(#paint24_linear_2170_592)"/>
<path d="M646.252 1669.92L676.211 1693.55L690.234 1734.63L755.252 1624.91L730.392 1614.78L698.521 1599.02L646.252 1559.63V1669.92Z" fill="url(#paint25_linear_2170_592)"/>
<path d="M359.434 1424.52L450.437 1517.77L458.871 1560.34L537.908 1460.24L514.617 1446.9L485.125 1427.04L438.561 1381.05L359.434 1424.52Z" fill="url(#paint26_linear_2170_592)"/>
<path d="M170.816 1063.16L223.587 1191.9L215.791 1241.37L329.326 1152.9L311.887 1131.59L290.91 1101.33L263.265 1037.35L170.816 1063.16Z" fill="url(#paint27_linear_2170_592)"/>
<path d="M1281.58 1742.85L1253.78 1669.53L1138.14 1709.65L1166.22 1779.67L1223.9 1761.26L1281.58 1742.85Z" fill="url(#paint28_linear_2170_592)"/>
<ellipse cx="94.7457" cy="110.81" rx="94.7457" ry="110.81" transform="matrix(0.362781 -0.931874 0.924231 0.381834 652.549 1753.75)" fill="url(#paint29_linear_2170_592)"/>
<path d="M2426.07 868.782L2304.75 844.761L2290.03 925.848L2391.28 943.306L2425.17 987.054L2426.07 868.782Z" fill="url(#paint30_linear_2170_592)"/>
<path d="M1699 1579V1723.95L1773.21 1741L1778 1598.06L1699 1579Z" fill="url(#paint31_linear_2170_592)"/>
<ellipse cx="87.8959" cy="106.492" rx="87.8959" ry="106.492" transform="matrix(-0.0542783 0.998526 -0.996567 -0.08279 2334.14 802.454)" fill="url(#paint32_linear_2170_592)"/>
<ellipse cx="84.2563" cy="92.1865" rx="84.2563" ry="92.1865" transform="matrix(0.421593 0.906785 -0.914709 0.404114 2018.12 848.708)" fill="url(#paint33_linear_2170_592)"/>
<path d="M1924.51 1034.04L1852.2 1096.19L1800.45 1044.94L1881.84 966.334L1924.51 1034.04Z" fill="url(#paint34_linear_2170_592)"/>
<path d="M2691.64 1016.56L2628.14 970.059L2548.14 918.56L2497.64 960.931L2492.13 997.063L2577.78 1053.04L2610.06 1077.79L2654.64 1118.06L2691.64 1016.56Z" fill="url(#paint35_linear_2170_592)"/>
<path d="M2922.07 1287.72L2883.66 1219.02L2832.33 1138.91L2768.78 1156.44L2748.75 1187.01L2803.36 1273.54L2822.41 1309.47L2846.2 1364.63L2922.07 1287.72Z" fill="url(#paint36_linear_2170_592)"/>
<ellipse cx="50.2417" cy="61.3586" rx="50.2417" ry="61.3586" transform="matrix(0.797777 0.602953 -0.618151 0.786059 1812.57 1004.2)" fill="url(#paint37_linear_2170_592)"/>
<path d="M2019.02 900.08L2046.45 973.539L2162.3 933.978L2134.55 863.825L2076.78 881.953L2019.02 900.08Z" fill="url(#paint38_linear_2170_592)"/>
<ellipse cx="94.7457" cy="110.81" rx="94.7457" ry="110.81" transform="matrix(-0.367299 0.930103 -0.922367 -0.386315 2648.07 892.21)" fill="url(#paint39_linear_2170_592)"/>
<ellipse cx="61.452" cy="75.0913" rx="61.452" ry="75.0913" transform="matrix(-0.996809 0.0798227 -0.0884301 -0.996082 1809.51 1612.79)" fill="url(#paint40_linear_2170_592)"/>
<ellipse cx="80.055" cy="90.3748" rx="80.055" ry="90.3748" transform="matrix(-0.962179 -0.272418 0.264097 -0.964496 1778.05 1843.95)" fill="url(#paint41_linear_2170_592)"/>
<path d="M1653.66 1072.57L1666.57 928.196L1594.17 904.599L1576.67 1046.54L1653.66 1072.57Z" fill="url(#paint42_linear_2170_592)"/>
<ellipse cx="61.452" cy="75.0913" rx="61.452" ry="75.0913" transform="matrix(0.976527 -0.215394 0.223821 0.97463 1544.97 1037.15)" fill="url(#paint43_linear_2170_592)"/>
<ellipse cx="80.055" cy="90.3748" rx="80.055" ry="90.3748" transform="matrix(0.990394 0.138273 -0.129713 0.991551 1568.42 773.676)" fill="url(#paint44_linear_2170_592)"/>
<path d="M1616.87 789.437L1627.42 759.848H1718.87L1682.19 813.848L1616.87 789.437Z" fill="#78797B"/>
<path d="M1716.84 585.466L1752.84 538.756L1834.09 580.724L1752.91 657.973L1716.84 585.466Z" fill="#A2A9B4"/>
<path d="M1888.71 398.184L1931.03 356.766L2015.86 414.201L1922.46 478.847L1888.71 398.184Z" fill="#A2A9B4"/>
<path d="M2121.89 195.625L2224.57 168.83L2267.25 275.525L2071.72 304.099L2121.89 195.625Z" fill="#A2A9B4"/>
<path d="M2035.82 1517.66L1958.33 1434.15L1904.33 1481.15L1972.82 1558.65L2035.82 1517.66Z" fill="url(#paint45_linear_2170_592)"/>
<path d="M2227.12 1770.57L2219.82 1754L2210.28 1738.66L2192.23 1721.27L2170.94 1708.57L2144.53 1699.58L2079.65 1609.91L2018.99 1652.04L2074.59 1738.86L2070.64 1747.96L2068.27 1757.09L2065.01 1771.74L2063.57 1782.16L2063.5 1795.28L2064.57 1807L2067.33 1820.81L2227.12 1770.57Z" fill="url(#paint46_linear_2170_592)"/>
<path d="M2143.28 2363.83L2153.55 2348.91L2161.6 2332.74L2166.92 2308.25L2166.56 2283.46L2160.34 2256.26L2202.6 2153.97L2134.9 2124.46L2090.19 2217.36L2080.37 2218.77L2071.35 2221.55L2057.18 2226.47L2047.56 2230.71L2036.35 2237.54L2026.93 2244.6L2016.64 2254.2L2143.28 2363.83Z" fill="url(#paint47_linear_2170_592)"/>
<path d="M2272.06 2042.84L2272.39 2024.23L2270.18 2005.82L2261.1 1981.87L2247.11 1960.94L2226.91 1941.29L2205.69 1829.81L2132.91 1843.43L2146.9 1948.3L2139.49 1955.14L2133.5 1962.68L2124.39 1975L2118.7 1984.13L2113.12 1996.38L2109.17 2007.8L2105.88 2021.89L2272.06 2042.84Z" fill="url(#paint48_linear_2170_592)"/>
<ellipse cx="52.5102" cy="56.4444" rx="52.5102" ry="56.4444" transform="matrix(-0.775193 0.631725 -0.638398 -0.769707 1990.37 1443.04)" fill="url(#paint49_linear_2170_592)"/>
<ellipse cx="78.909" cy="92.2437" rx="78.909" ry="92.2437" transform="matrix(-0.90533 0.424709 -0.432513 -0.901627 2147.98 1649.52)" fill="url(#paint50_linear_2170_592)"/>
<ellipse cx="78.909" cy="92.2437" rx="78.909" ry="92.2437" transform="matrix(0.906734 -0.421704 0.429521 0.903057 1225.53 985.962)" fill="url(#paint51_linear_2170_592)"/>
<ellipse cx="99.6473" cy="118.457" rx="99.6473" ry="118.457" transform="matrix(0.999122 0.041892 -0.0332601 0.999447 1168.96 629.374)" fill="url(#paint52_linear_2170_592)"/>
<ellipse cx="99.6473" cy="118.457" rx="99.6473" ry="118.457" transform="matrix(0.976229 0.216742 -0.208301 0.978065 1226.37 335.64)" fill="url(#paint53_linear_2170_592)"/>
<ellipse cx="120.299" cy="142.631" rx="120.299" ry="142.631" transform="matrix(0.916496 0.400043 -0.392112 0.919918 1346.88 4.41016)" fill="url(#paint54_linear_2170_592)"/>
<ellipse cx="99.6473" cy="118.457" rx="99.6473" ry="118.457" transform="matrix(0.566544 0.824032 -0.819107 0.573641 1890.53 346.417)" fill="url(#paint55_linear_2170_592)"/>
<ellipse cx="122.042" cy="149.249" rx="122.042" ry="149.249" transform="matrix(0.503739 0.863856 -0.859473 0.511182 2126.18 126.372)" fill="url(#paint56_linear_2170_592)"/>
<ellipse cx="137.419" cy="172.913" rx="137.419" ry="172.913" transform="matrix(0.0634558 0.997985 -0.997399 0.072074 2544.2 36.4053)" fill="url(#paint57_linear_2170_592)"/>
<path d="M1336.72 1113.04L1413.94 1196.8L1468.1 1149.99L1399.86 1072.26L1336.72 1113.04Z" fill="url(#paint58_linear_2170_592)"/>
<path d="M1177.83 775.751L1179.77 793.758L1184.21 811.273L1196.13 833.314L1212.57 851.87L1235.01 868.446L1269.66 973.564L1340.23 951.804L1313.57 852.213L1320.1 844.735L1325.12 836.752L1332.67 823.778L1337.2 814.293L1341.24 801.807L1343.78 790.315L1345.33 776.32L1177.83 775.751Z" fill="url(#paint59_linear_2170_592)"/>
<ellipse cx="62.5368" cy="71.7624" rx="62.5368" ry="71.7624" transform="matrix(0.777283 -0.629151 0.635841 0.77182 1377.3 1190.45)" fill="url(#paint60_linear_2170_592)"/>
<ellipse cx="91.9237" cy="105.495" rx="91.9237" ry="105.495" transform="matrix(-0.94047 0.339875 -0.347986 -0.937499 2274.84 1876.56)" fill="url(#paint61_linear_2170_592)"/>
<ellipse cx="109.493" cy="127.437" rx="109.493" ry="127.437" transform="matrix(-0.974077 -0.226218 0.217795 -0.975994 2262.78 2215.8)" fill="url(#paint62_linear_2170_592)"/>
<ellipse cx="108.332" cy="133.339" rx="108.332" ry="133.339" transform="matrix(-0.672667 0.739946 -0.745728 -0.66625 2906.88 1124.08)" fill="url(#paint63_linear_2170_592)"/>
<ellipse cx="133.806" cy="157.5" rx="133.806" ry="157.5" transform="matrix(-0.911189 0.411989 -0.419844 -0.907596 3110.36 1483.3)" fill="url(#paint64_linear_2170_592)"/>
<ellipse cx="115.963" cy="131.804" rx="115.963" ry="131.804" transform="matrix(-0.725327 -0.688404 0.682113 -0.731247 2049.5 2509.82)" fill="url(#paint65_linear_2170_592)"/>
<ellipse cx="86.3628" cy="100.55" rx="86.3628" ry="100.55" transform="matrix(-0.900734 -0.434371 0.459933 -0.887954 1698.58 2058.59)" fill="url(#paint66_linear_2170_592)"/>
<ellipse cx="97.6312" cy="115.786" rx="97.6312" ry="115.786" transform="matrix(-0.664276 -0.747488 0.766165 -0.642644 1498.71 2253.77)" fill="url(#paint67_linear_2170_592)"/>
<ellipse cx="110.223" cy="134.456" rx="110.223" ry="134.456" transform="matrix(-0.457948 -0.888979 0.901702 -0.432357 1194.95 2408.24)" fill="url(#paint68_linear_2170_592)"/>
<ellipse cx="124.549" cy="159.563" rx="124.549" ry="159.563" transform="matrix(-0.432438 -0.901664 0.913653 -0.406495 850.72 2541.33)" fill="url(#paint69_linear_2170_592)"/>
<ellipse cx="110.223" cy="134.327" rx="110.223" ry="134.327" transform="matrix(0.711964 -0.702216 0.681584 0.73174 403.287 1535.21)" fill="url(#paint70_linear_2170_592)"/>
<ellipse cx="126.089" cy="154.099" rx="126.089" ry="154.099" transform="matrix(0.872866 -0.48796 0.462817 0.886454 154.284 1215.46)" fill="url(#paint71_linear_2170_592)"/>
<ellipse cx="126.089" cy="154.099" rx="126.089" ry="154.099" transform="matrix(0.927986 -0.372615 0.345945 0.938255 14.2852 848.371)" fill="url(#paint72_linear_2170_592)"/>
<ellipse cx="110.223" cy="134.327" rx="110.223" ry="134.327" transform="matrix(0.999505 -0.0314593 0.00288451 0.999996 755 534.341)" fill="url(#paint73_linear_2170_592)"/>
<ellipse cx="137.452" cy="162.642" rx="137.452" ry="162.642" transform="matrix(0.966476 0.256759 -0.284272 0.958744 837.469 144.401)" fill="url(#paint74_linear_2170_592)"/>
<ellipse cx="87.8959" cy="106.492" rx="87.8959" ry="106.492" transform="matrix(0.907061 0.420999 -0.446747 0.89466 1662.58 550.427)" fill="url(#paint75_linear_2170_592)"/>
<defs>
<linearGradient id="paint0_linear_2170_592" x1="866.137" y1="770.691" x2="866.137" y2="907.691" gradientUnits="userSpaceOnUse">
<stop stop-color="#55575A"/>
<stop offset="0.757109" stop-color="#838B9B"/>
</linearGradient>
<linearGradient id="paint1_linear_2170_592" x1="909.983" y1="462.633" x2="862.19" y2="620.352" gradientUnits="userSpaceOnUse">
<stop stop-color="#55575A"/>
<stop offset="0.757109" stop-color="#838B9B"/>
</linearGradient>
<linearGradient id="paint2_linear_2170_592" x1="1289.14" y1="548.343" x2="1253.52" y2="680.633" gradientUnits="userSpaceOnUse">
<stop stop-color="#55575A"/>
<stop offset="0.757109" stop-color="#838B9B"/>
</linearGradient>
<linearGradient id="paint3_linear_2170_592" x1="1363.09" y1="288.262" x2="1303.85" y2="411.788" gradientUnits="userSpaceOnUse">
<stop stop-color="#55575A"/>
<stop offset="0.757109" stop-color="#838B9B"/>
</linearGradient>
<linearGradient id="paint4_linear_2170_592" x1="971.137" y1="1009.69" x2="971.137" y2="1185.69" gradientUnits="userSpaceOnUse">
<stop stop-color="#D3D5DB"/>
<stop offset="1" stop-color="#7C8087"/>
</linearGradient>
<linearGradient id="paint5_linear_2170_592" x1="1061.51" y1="1128.19" x2="1061.51" y2="1332.51" gradientUnits="userSpaceOnUse">
<stop stop-color="#1601FE"/>
<stop offset="0.0001" stop-color="#7B7E86"/>
<stop offset="0.69686" stop-color="#7E8696"/>
</linearGradient>
<linearGradient id="paint6_linear_2170_592" x1="1301.78" y1="1446.4" x2="1284.7" y2="1268.48" gradientUnits="userSpaceOnUse">
<stop stop-color="#FFFEFF"/>
<stop offset="0.726582" stop-color="#969696"/>
</linearGradient>
<linearGradient id="paint7_linear_2170_592" x1="893.816" y1="879.526" x2="893.816" y2="1090.44" gradientUnits="userSpaceOnUse">
<stop offset="0.480769" stop-color="#838B9B"/>
<stop offset="0.831731" stop-color="#B5B5B5"/>
<stop offset="1" stop-color="#ABAEB4"/>
</linearGradient>
<linearGradient id="paint8_linear_2170_592" x1="1115.64" y1="1274.97" x2="1252.14" y2="1343.42" gradientUnits="userSpaceOnUse">
<stop offset="0.166005" stop-color="#7E8696"/>
<stop offset="0.9297" stop-color="#989898"/>
</linearGradient>
<linearGradient id="paint9_linear_2170_592" x1="2573.11" y1="1793.18" x2="2572.8" y2="1656.55" gradientUnits="userSpaceOnUse">
<stop stop-color="#818999"/>
<stop offset="0.317308" stop-color="#B3BBCA"/>
</linearGradient>
<linearGradient id="paint10_linear_2170_592" x1="2605.43" y1="2115.9" x2="2605.12" y2="1979.27" gradientUnits="userSpaceOnUse">
<stop stop-color="#818999"/>
<stop offset="0.317308" stop-color="#B3BBCA"/>
</linearGradient>
<linearGradient id="paint11_linear_2170_592" x1="2466.48" y1="1555.06" x2="2466.09" y2="1379.53" gradientUnits="userSpaceOnUse">
<stop stop-color="#747E8F"/>
<stop offset="1" stop-color="#DEE7EF"/>
</linearGradient>
<linearGradient id="paint12_linear_2170_592" x1="85.079" y1="0" x2="85.079" y2="204.918" gradientUnits="userSpaceOnUse">
<stop stop-color="#1601FE"/>
<stop offset="0.0001" stop-color="#D6DFE8"/>
<stop offset="0.69686" stop-color="#9197A3"/>
</linearGradient>
<linearGradient id="paint13_linear_2170_592" x1="92.7972" y1="0" x2="92.7972" y2="210.761" gradientUnits="userSpaceOnUse">
<stop offset="0.173077" stop-color="#7B8595"/>
<stop offset="0.480769" stop-color="#8C9BB0"/>
<stop offset="1" stop-color="#B8BFD0"/>
</linearGradient>
<linearGradient id="paint14_linear_2170_592" x1="112.805" y1="0" x2="112.805" y2="269.875" gradientUnits="userSpaceOnUse">
<stop offset="0.173077" stop-color="#7B8595"/>
<stop offset="0.480769" stop-color="#8C9BB0"/>
<stop offset="1" stop-color="#B8BFD0"/>
</linearGradient>
<linearGradient id="paint15_linear_2170_592" x1="148.789" y1="0" x2="148.789" y2="348.392" gradientUnits="userSpaceOnUse">
<stop offset="0.173077" stop-color="#7B8595"/>
<stop offset="0.480769" stop-color="#8C9BB0"/>
<stop offset="1" stop-color="#B8BFD0"/>
</linearGradient>
<linearGradient id="paint16_linear_2170_592" x1="2319.91" y1="1290.8" x2="2182.57" y2="1221.41" gradientUnits="userSpaceOnUse">
<stop offset="0.166005" stop-color="#9197A3"/>
<stop offset="0.9297" stop-color="#949DA9"/>
</linearGradient>
<linearGradient id="paint17_linear_2170_592" x1="2097.01" y1="1207.62" x2="1946.91" y2="1241.52" gradientUnits="userSpaceOnUse">
<stop offset="0.0576923" stop-color="#8B94A5"/>
<stop offset="0.568717" stop-color="#B1B9C4"/>
</linearGradient>
<linearGradient id="paint18_linear_2170_592" x1="62.9334" y1="150.183" x2="47.3187" y2="1.32717" gradientUnits="userSpaceOnUse">
<stop offset="0.149038" stop-color="#FFFEFF"/>
<stop offset="1" stop-color="#868F9C"/>
</linearGradient>
<linearGradient id="paint19_linear_2170_592" x1="81.9848" y1="180.75" x2="64.5952" y2="1.3112" gradientUnits="userSpaceOnUse">
<stop stop-color="#7D8492"/>
<stop offset="0.658654" stop-color="#7C8596"/>
</linearGradient>
<linearGradient id="paint20_linear_2170_592" x1="1057.23" y1="1826.2" x2="881.919" y2="1783.24" gradientUnits="userSpaceOnUse">
<stop offset="0.163462" stop-color="#7D8697"/>
<stop offset="1" stop-color="#8C9BB0"/>
</linearGradient>
<linearGradient id="paint21_linear_2170_592" x1="88.7597" y1="-0.0435064" x2="91.063" y2="212.984" gradientUnits="userSpaceOnUse">
<stop stop-color="#7D8697"/>
<stop offset="1" stop-color="#808999"/>
</linearGradient>
<linearGradient id="paint22_linear_2170_592" x1="84.7572" y1="-0.0169749" x2="69.7588" y2="183.244" gradientUnits="userSpaceOnUse">
<stop stop-color="#8D96A2"/>
<stop offset="1" stop-color="#B8BDC5"/>
</linearGradient>
<linearGradient id="paint23_linear_2170_592" x1="68.2599" y1="169.341" x2="68.2599" y2="0" gradientUnits="userSpaceOnUse">
<stop stop-color="white"/>
<stop offset="1" stop-color="#A3A4A6"/>
</linearGradient>
<linearGradient id="paint24_linear_2170_592" x1="1499.44" y1="1559.89" x2="1375.44" y2="1661.97" gradientUnits="userSpaceOnUse">
<stop offset="0.416884" stop-color="#B1B2B5"/>
<stop offset="0.514454" stop-color="#B7BCC4"/>
</linearGradient>
<linearGradient id="paint25_linear_2170_592" x1="646.252" y1="1584.03" x2="738.695" y2="1721.38" gradientUnits="userSpaceOnUse">
<stop offset="0.0457494" stop-color="#727273"/>
<stop offset="0.532431" stop-color="#8B9AAF"/>
</linearGradient>
<linearGradient id="paint26_linear_2170_592" x1="435.313" y1="1405.24" x2="508.662" y2="1553.66" gradientUnits="userSpaceOnUse">
<stop offset="0.0457494" stop-color="#727273"/>
<stop offset="0.532431" stop-color="#8B9AAF"/>
</linearGradient>
<linearGradient id="paint27_linear_2170_592" x1="251.094" y1="1063.19" x2="292.385" y2="1241.95" gradientUnits="userSpaceOnUse">
<stop offset="0.0457494" stop-color="#727273"/>
<stop offset="0.532431" stop-color="#8B9AAF"/>
</linearGradient>
<linearGradient id="paint28_linear_2170_592" x1="1284.49" y1="1699.72" x2="1133.24" y2="1734.54" gradientUnits="userSpaceOnUse">
<stop stop-color="#939CA7"/>
<stop offset="1" stop-color="#7D8697"/>
</linearGradient>
<linearGradient id="paint29_linear_2170_592" x1="98.5582" y1="207.659" x2="78.6076" y2="1.98993" gradientUnits="userSpaceOnUse">
<stop stop-color="#8B9AAF"/>
</linearGradient>
<linearGradient id="paint30_linear_2170_592" x1="2243.75" y1="817.801" x2="2418.85" y2="861.617" gradientUnits="userSpaceOnUse">
<stop offset="0.163462" stop-color="#7E8697"/>
<stop offset="1" stop-color="#BEC7D2"/>
</linearGradient>
<linearGradient id="paint31_linear_2170_592" x1="1738.5" y1="1579" x2="1738.5" y2="1741" gradientUnits="userSpaceOnUse">
<stop offset="0.401375" stop-color="#959DA8"/>
<stop offset="0.725426" stop-color="#9097AA"/>
</linearGradient>
<linearGradient id="paint32_linear_2170_592" x1="88.7597" y1="-0.0435064" x2="91.063" y2="212.984" gradientUnits="userSpaceOnUse">
<stop stop-color="#7D8697"/>
<stop offset="1" stop-color="#7E8798"/>
</linearGradient>
<linearGradient id="paint33_linear_2170_592" x1="84.7572" y1="-0.0169749" x2="69.7588" y2="183.244" gradientUnits="userSpaceOnUse">
<stop offset="0.125" stop-color="#7D8697"/>
<stop offset="0.543269" stop-color="#818896"/>
</linearGradient>
<linearGradient id="paint34_linear_2170_592" x1="1800.27" y1="1081.98" x2="1924.77" y2="980.497" gradientUnits="userSpaceOnUse">
<stop offset="0.432692" stop-color="#9198A5"/>
<stop offset="0.860577" stop-color="#7E8593"/>
</linearGradient>
<linearGradient id="paint35_linear_2170_592" x1="2654.77" y1="1089.45" x2="2539.77" y2="954.45" gradientUnits="userSpaceOnUse">
<stop offset="0.0457494" stop-color="#BCC5D2"/>
<stop offset="0.532431" stop-color="#8491A3"/>
</linearGradient>
<linearGradient id="paint36_linear_2170_592" x1="2858.22" y1="1338.68" x2="2809.79" y2="1168.07" gradientUnits="userSpaceOnUse">
<stop offset="0.0457494" stop-color="#BCC5D2"/>
<stop offset="0.532431" stop-color="#8491A3"/>
</linearGradient>
<linearGradient id="paint37_linear_2170_592" x1="50.2417" y1="122.717" x2="50.2417" y2="0" gradientUnits="userSpaceOnUse">
<stop stop-color="#FFFEFF"/>
<stop offset="1" stop-color="#8B93A0"/>
</linearGradient>
<linearGradient id="paint38_linear_2170_592" x1="2015.89" y1="943.2" x2="2167.31" y2="909.109" gradientUnits="userSpaceOnUse">
<stop stop-color="#818896"/>
<stop offset="1" stop-color="#7D8697"/>
</linearGradient>
<linearGradient id="paint39_linear_2170_592" x1="98.5582" y1="207.659" x2="78.6076" y2="1.98993" gradientUnits="userSpaceOnUse">
<stop stop-color="#BCC5D2"/>
</linearGradient>
<linearGradient id="paint40_linear_2170_592" x1="62.9334" y1="150.183" x2="47.3187" y2="1.32717" gradientUnits="userSpaceOnUse">
<stop offset="0.149038" stop-color="#FFFEFF"/>
<stop offset="1" stop-color="#868F9C"/>
</linearGradient>
<linearGradient id="paint41_linear_2170_592" x1="81.9848" y1="180.75" x2="64.5952" y2="1.3112" gradientUnits="userSpaceOnUse">
<stop stop-color="#939BA7"/>
<stop offset="0.850962" stop-color="#7D8596"/>
<stop offset="0.913462" stop-color="#7D8696"/>
</linearGradient>
<linearGradient id="paint42_linear_2170_592" x1="1614.31" y1="1069.05" x2="1628.75" y2="907.691" gradientUnits="userSpaceOnUse">
<stop offset="0.401375" stop-color="#8F97A3"/>
<stop offset="0.725426" stop-color="#818896"/>
</linearGradient>
<linearGradient id="paint43_linear_2170_592" x1="62.9334" y1="150.183" x2="47.3187" y2="1.32717" gradientUnits="userSpaceOnUse">
<stop offset="0.149038" stop-color="#FFFEFF"/>
<stop offset="1" stop-color="#868F9C"/>
</linearGradient>
<linearGradient id="paint44_linear_2170_592" x1="81.9848" y1="180.75" x2="64.5952" y2="1.3112" gradientUnits="userSpaceOnUse">
<stop stop-color="#868E9B"/>
<stop offset="0.850962" stop-color="#78797B"/>
</linearGradient>
<linearGradient id="paint45_linear_2170_592" x1="1970.08" y1="1434.15" x2="1970.07" y2="1558.65" gradientUnits="userSpaceOnUse">
<stop offset="0.0408766" stop-color="#7C8495"/>
<stop offset="0.605769" stop-color="#7C8596"/>
</linearGradient>
<linearGradient id="paint46_linear_2170_592" x1="2088" y1="1607.28" x2="2147.23" y2="1795.69" gradientUnits="userSpaceOnUse">
<stop offset="0.288462" stop-color="#AAB3C0"/>
<stop offset="0.5625" stop-color="#8C9BB0"/>
</linearGradient>
<linearGradient id="paint47_linear_2170_592" x1="2209.22" y1="2159.69" x2="2079.96" y2="2309.02" gradientUnits="userSpaceOnUse">
<stop offset="0.288462" stop-color="#AAB3C0"/>
<stop offset="0.5625" stop-color="#8C9BB0"/>
</linearGradient>
<linearGradient id="paint48_linear_2170_592" x1="2214.37" y1="1830.9" x2="2188.97" y2="2032.37" gradientUnits="userSpaceOnUse">
<stop offset="0.288462" stop-color="#AAB3C0"/>
<stop offset="0.5625" stop-color="#8C9BB0"/>
</linearGradient>
<linearGradient id="paint49_linear_2170_592" x1="53.776" y1="112.889" x2="43.4255" y2="0.721495" gradientUnits="userSpaceOnUse">
<stop offset="0.031811" stop-color="#FDFCFD"/>
<stop offset="0.563696" stop-color="#7D8494"/>
</linearGradient>
<linearGradient id="paint50_linear_2170_592" x1="80.8112" y1="184.487" x2="62.4442" y2="1.46138" gradientUnits="userSpaceOnUse">
<stop offset="0.586538" stop-color="#7D8697"/>
<stop offset="1" stop-color="#B6BFCB"/>
</linearGradient>
<linearGradient id="paint51_linear_2170_592" x1="80.8112" y1="184.487" x2="62.4442" y2="1.46138" gradientUnits="userSpaceOnUse">
<stop offset="0.221154" stop-color="#979CA5"/>
<stop offset="0.850962" stop-color="#727373"/>
</linearGradient>
<linearGradient id="paint52_linear_2170_592" x1="102.049" y1="236.914" x2="78.0721" y2="1.9566" gradientUnits="userSpaceOnUse">
<stop offset="0.221154" stop-color="#7D8697"/>
<stop offset="0.850962" stop-color="#7D8697"/>
</linearGradient>
<linearGradient id="paint53_linear_2170_592" x1="102.049" y1="236.914" x2="78.0721" y2="1.9566" gradientUnits="userSpaceOnUse">
<stop offset="0.221154" stop-color="#676B73"/>
<stop offset="0.850962" stop-color="#7D8697"/>
</linearGradient>
<linearGradient id="paint54_linear_2170_592" x1="123.199" y1="285.262" x2="94.4027" y2="2.34058" gradientUnits="userSpaceOnUse">
<stop offset="0.221154" stop-color="#676B73"/>
<stop offset="0.850962" stop-color="#7D8697"/>
</linearGradient>
<linearGradient id="paint55_linear_2170_592" x1="102.049" y1="236.914" x2="78.0721" y2="1.9566" gradientUnits="userSpaceOnUse">
<stop offset="0.221154" stop-color="#A2A9B4"/>
<stop offset="0.850962" stop-color="#FEFEFE"/>
</linearGradient>
<linearGradient id="paint56_linear_2170_592" x1="124.984" y1="298.498" x2="93.9245" y2="2.64299" gradientUnits="userSpaceOnUse">
<stop offset="0.221154" stop-color="#A2A9B4"/>
<stop offset="0.850962" stop-color="#FEFEFE"/>
</linearGradient>
<linearGradient id="paint57_linear_2170_592" x1="140.731" y1="345.826" x2="103.73" y2="3.28114" gradientUnits="userSpaceOnUse">
<stop offset="0.221154" stop-color="#A2A9B4"/>
<stop offset="0.850962" stop-color="#FEFEFE"/>
</linearGradient>
<linearGradient id="paint58_linear_2170_592" x1="1402.19" y1="1196.76" x2="1402.61" y2="1072.26" gradientUnits="userSpaceOnUse">
<stop offset="0.0408766" stop-color="#AFAFAF"/>
<stop offset="0.605769" stop-color="#979CA5"/>
</linearGradient>
<linearGradient id="paint59_linear_2170_592" x1="1260.91" y1="973.535" x2="1261.58" y2="776.036" gradientUnits="userSpaceOnUse">
<stop offset="0.288462" stop-color="#727273"/>
<stop offset="0.5625" stop-color="#7D8697"/>
</linearGradient>
<linearGradient id="paint60_linear_2170_592" x1="64.0443" y1="143.525" x2="50.0128" y2="1.08523" gradientUnits="userSpaceOnUse">
<stop offset="0.031811" stop-color="#FFFEFF"/>
<stop offset="0.563696" stop-color="#AFAFAF"/>
</linearGradient>
<linearGradient id="paint61_linear_2170_592" x1="94.1397" y1="210.99" x2="73.5104" y2="1.59575" gradientUnits="userSpaceOnUse">
<stop offset="0.0273221" stop-color="#8C9BB0"/>
<stop offset="1" stop-color="#B6BFCB"/>
</linearGradient>
<linearGradient id="paint62_linear_2170_592" x1="112.132" y1="254.874" x2="86.8664" y2="1.99698" gradientUnits="userSpaceOnUse">
<stop offset="0.0273221" stop-color="#8C9BB0"/>
<stop offset="1" stop-color="#B6BFCB"/>
</linearGradient>
<linearGradient id="paint63_linear_2170_592" x1="110.944" y1="266.677" x2="83.02" y2="2.39859" gradientUnits="userSpaceOnUse">
<stop offset="0.0273221" stop-color="#8C9BB0"/>
<stop offset="1" stop-color="#B6BFCB"/>
</linearGradient>
<linearGradient id="paint64_linear_2170_592" x1="137.031" y1="315" x2="105.458" y2="2.53849" gradientUnits="userSpaceOnUse">
<stop offset="0.0273221" stop-color="#8C9BB0"/>
<stop offset="1" stop-color="#B6BFCB"/>
</linearGradient>
<linearGradient id="paint65_linear_2170_592" x1="118.759" y1="263.607" x2="93.2278" y2="1.94556" gradientUnits="userSpaceOnUse">
<stop offset="0.0273221" stop-color="#8C9BB0"/>
<stop offset="1" stop-color="#B6BFCB"/>
</linearGradient>
<linearGradient id="paint66_linear_2170_592" x1="87.2116" y1="-0.0410788" x2="89.3015" y2="201.102" gradientUnits="userSpaceOnUse">
<stop stop-color="#B7BCC4"/>
<stop offset="1" stop-color="#808999"/>
</linearGradient>
<linearGradient id="paint67_linear_2170_592" x1="98.5907" y1="-0.0473034" x2="101.042" y2="231.573" gradientUnits="userSpaceOnUse">
<stop stop-color="#7E8797"/>
<stop offset="1" stop-color="#B4BAC2"/>
</linearGradient>
<linearGradient id="paint68_linear_2170_592" x1="111.306" y1="-0.0549309" x2="114.234" y2="268.912" gradientUnits="userSpaceOnUse">
<stop stop-color="#B4BAC2"/>
<stop offset="1" stop-color="#818999"/>
</linearGradient>
<linearGradient id="paint69_linear_2170_592" x1="125.773" y1="-0.0651881" x2="129.422" y2="319.121" gradientUnits="userSpaceOnUse">
<stop stop-color="#B4BAC2"/>
<stop offset="1" stop-color="#818999"/>
</linearGradient>
<linearGradient id="paint70_linear_2170_592" x1="111.306" y1="-0.0548781" x2="114.229" y2="268.653" gradientUnits="userSpaceOnUse">
<stop stop-color="#B4BAC2"/>
<stop offset="1" stop-color="#818999"/>
</linearGradient>
<linearGradient id="paint71_linear_2170_592" x1="127.328" y1="-0.0629557" x2="130.691" y2="308.197" gradientUnits="userSpaceOnUse">
<stop stop-color="#B4BAC2"/>
<stop offset="1" stop-color="#818999"/>
</linearGradient>
<linearGradient id="paint72_linear_2170_592" x1="127.328" y1="-0.0629557" x2="130.691" y2="308.197" gradientUnits="userSpaceOnUse">
<stop stop-color="#B4BAC2"/>
<stop offset="1" stop-color="#818999"/>
</linearGradient>
<linearGradient id="paint73_linear_2170_592" x1="111.306" y1="-0.0548781" x2="114.229" y2="268.653" gradientUnits="userSpaceOnUse">
<stop stop-color="#B4BAC2"/>
<stop offset="1" stop-color="#818999"/>
</linearGradient>
<linearGradient id="paint74_linear_2170_592" x1="138.803" y1="-0.0664459" x2="142.239" y2="325.285" gradientUnits="userSpaceOnUse">
<stop stop-color="#B4BAC2"/>
<stop offset="1" stop-color="#818999"/>
</linearGradient>
<linearGradient id="paint75_linear_2170_592" x1="88.7597" y1="-0.0435064" x2="91.063" y2="212.984" gradientUnits="userSpaceOnUse">
<stop offset="0.283654" stop-color="#A2A9B4"/>
<stop offset="1" stop-color="#78797B"/>
</linearGradient>
</defs>
</svg>
